<?xml version="1.0" encoding="UTF-8"?>
<svg width="130px" height="30px" viewBox="0 0 130 30" version="1.1" xmlns="http://www.w3.org/2000/svg" xmlns:xlink="http://www.w3.org/1999/xlink">
    <!-- Generator: Sketch 55.2 (78181) - https://sketchapp.com -->
    <title>ic_营业执照</title>
    <desc>Created with Sketch.</desc>
    <g id="ic_营业执照" stroke="none" stroke-width="1" fill="none" fill-rule="evenodd">
        <g>
            <g id="Group-12">
                <path d="M2,0.5 C1.17157288,0.5 0.5,1.17157288 0.5,2 L0.5,28 C0.5,28.8284271 1.17157288,29.5 2,29.5 L128,29.5 C128.828427,29.5 129.5,28.8284271 129.5,28 L129.5,2 C129.5,1.17157288 128.828427,0.5 128,0.5 L2,0.5 Z" id="Rectangle-28" stroke="#5195C9" fill="#FFFFFF"></path>
                <path d="M2,0 L40,0 L40,30 L2,30 C0.8954305,30 1.3527075e-16,29.1045695 0,28 L0,2 C-1.3527075e-16,0.8954305 0.8954305,2.02906125e-16 2,0 Z" id="Rectangle-28备份" fill="#5195C9"></path>
                <text id="营业执照" font-family="PingFangSC-Regular, PingFang SC" font-size="20" font-weight="normal" line-spacing="26" fill="#3A7EB1">
                    <tspan x="44" y="23">营业执照</tspan>
                </text>
                <g id="Group-3" transform="translate(8.000000, 19.000000)" fill="#FFFFFF">
                    <path d="M6,4 L18,4 C18.5522847,4 19,4.44771525 19,5 C19,5.55228475 18.5522847,6 18,6 L6,6 C5.44771525,6 5,5.55228475 5,5 C5,4.44771525 5.44771525,4 6,4 Z" id="Rectangle-31"></path>
                    <path d="M1,0 L23,0 C23.5522847,-1.01453063e-16 24,0.44771525 24,1 C24,1.55228475 23.5522847,2 23,2 L1,2 C0.44771525,2 6.76353751e-17,1.55228475 0,1 C-6.76353751e-17,0.44771525 0.44771525,1.01453063e-16 1,0 Z" id="Rectangle-31-Copy-2"></path>
                </g>
            </g>
            <path d="M16.6228858,13.6871938 C15.6254166,12.7731124 15,11.4595931 15,10 C15,7.23857625 17.2385763,5 20,5 C22.7614237,5 25,7.23857625 25,10 C25,11.4624556 24.372128,12.7782638 23.3712414,13.692567 C23.7554478,13.9640175 24,14.345576 24,14.7686472 L24,14.7988703 C24,15.6241183 23.0691707,16.2758621 21.9864715,16.2758621 L17.9876098,16.2758621 C16.9050732,16.2758621 16,15.6241183 16,14.7988703 L16,14.7686472 C16,14.342777 16.2409422,13.9589706 16.6228858,13.6871938 Z" id="Combined-Shape" fill="#FFFFFF" fill-rule="nonzero"></path>
        </g>
    </g>
</svg>